<svg xmlns="http://www.w3.org/2000/svg" xmlns:xlink="http://www.w3.org/1999/xlink" width="500" zoomAndPan="magnify" viewBox="0 0 375 374.999991" height="500" preserveAspectRatio="xMidYMid meet" version="1.2"><defs><clipPath id="ef7acfde74"><path d="M 10.152344 78.765625 L 85.398438 78.765625 L 85.398438 370.355469 L 10.152344 370.355469 Z M 10.152344 78.765625 "/></clipPath><clipPath id="60ad2ac0df"><path d="M 102.960938 18.289062 L 178.207031 18.289062 L 178.207031 370.355469 L 102.960938 370.355469 Z M 102.960938 18.289062 "/></clipPath><clipPath id="502aca56f0"><path d="M 197.105469 194.324219 L 272.351562 194.324219 L 272.351562 370.355469 L 197.105469 370.355469 Z M 197.105469 194.324219 "/></clipPath><clipPath id="0100554189"><path d="M 289.601562 126.976562 L 364.847656 126.976562 L 364.847656 370.355469 L 289.601562 370.355469 Z M 289.601562 126.976562 "/></clipPath></defs><g id="d9eda161b2"><g clip-rule="nonzero" clip-path="url(#ef7acfde74)"><path style=" stroke:none;fill-rule:nonzero;fill:#749eea;fill-opacity:1;" d="M 10.152344 78.765625 L 85.398438 78.765625 L 85.398438 370.34375 L 10.152344 370.34375 Z M 10.152344 78.765625 "/></g><g clip-rule="nonzero" clip-path="url(#60ad2ac0df)"><path style=" stroke:none;fill-rule:nonzero;fill:#aa8acb;fill-opacity:1;" d="M 102.960938 18.289062 L 178.207031 18.289062 L 178.207031 370.414062 L 102.960938 370.414062 Z M 102.960938 18.289062 "/></g><g clip-rule="nonzero" clip-path="url(#502aca56f0)"><path style=" stroke:none;fill-rule:nonzero;fill:#e575ac;fill-opacity:1;" d="M 197.105469 194.324219 L 272.351562 194.324219 L 272.351562 370.386719 L 197.105469 370.386719 Z M 197.105469 194.324219 "/></g><g clip-rule="nonzero" clip-path="url(#0100554189)"><path style=" stroke:none;fill-rule:nonzero;fill:#ffca79;fill-opacity:1;" d="M 289.601562 126.976562 L 364.847656 126.976562 L 364.847656 370.351562 L 289.601562 370.351562 Z M 289.601562 126.976562 "/></g></g></svg>