<svg width="32" height="32" viewBox="0 0 375 375" fill="none" xmlns="http://www.w3.org/2000/svg">
  <defs>
    <clipPath id="bar1"><path d="M 10.152344 78.765625 L 85.398438 78.765625 L 85.398438 370.355469 L 10.152344 370.355469 Z"/></clipPath>
    <clipPath id="bar2"><path d="M 102.960938 18.289062 L 178.207031 18.289062 L 178.207031 370.355469 L 102.960938 370.355469 Z"/></clipPath>
    <clipPath id="bar3"><path d="M 197.105469 194.324219 L 272.351562 194.324219 L 272.351562 370.355469 L 197.105469 370.355469 Z"/></clipPath>
    <clipPath id="bar4"><path d="M 289.601562 126.976562 L 364.847656 126.976562 L 364.847656 370.355469 L 289.601562 370.355469 Z"/></clipPath>
  </defs>
  
  <g clipPath="url(#bar1)">
    <path fill="#749eea" d="M 10.152344 78.765625 L 85.398438 78.765625 L 85.398438 370.34375 L 10.152344 370.34375 Z"/>
  </g>
  <g clipPath="url(#bar2)">
    <path fill="#aa8acb" d="M 102.960938 18.289062 L 178.207031 18.289062 L 178.207031 370.414062 L 102.960938 370.414062 Z"/>
  </g>
  <g clipPath="url(#bar3)">
    <path fill="#e575ac" d="M 197.105469 194.324219 L 272.351562 194.324219 L 272.351562 370.386719 L 197.105469 370.386719 Z"/>
  </g>
  <g clipPath="url(#bar4)">
    <path fill="#ffca79" d="M 289.601562 126.976562 L 364.847656 126.976562 L 364.847656 370.351562 L 289.601562 370.351562 Z"/>
  </g>
</svg>
